<?xml version="1.0" encoding="UTF-8"?>
<svg xmlns="http://www.w3.org/2000/svg" width="800" height="600" version="1.1"><defs><pattern id="stripes" viewBox="0,0,8,8" width="16" height="16" patternUnits="userSpaceOnUse"><polygon points="0,4 0,8 8,0 4,0" fill="white"></polygon><polygon points="4,8 8,8 8,4" fill="white"></polygon></pattern></defs><style>tspan {font-family: -apple-system,BlinkMacSystemFont,"Segoe UI",Roboto,"Helvetica Neue",Arial,"Noto Sans",sans-serif,"Apple Color Emoji","Segoe UI Emoji","Segoe UI Symbol","Noto Color Emoji";}
.strong {font-weight: bold;}
a {fill: #06D; text-decoration: underline; cursor: pointer;}
a:hover, a:active {outline: dotted 1px blue; color: #06D;}</style><svg x="0" y="0" width="266.6666666666667" height="600"><g><text x="10" y="105"><tspan class="strong">Initial development</tspan></text></g><g><text x="10" y="145"><tspan class="strong">Bring website online</tspan></text><g><text x="40" y="185"><tspan class="strong">Select and purchase domain</tspan></text></g><g><text x="40" y="225"><tspan class="strong">Create server infrastructure</tspan></text></g></g><g><text x="10" y="265"><tspan class="strong">Command line tool</tspan></text><g><text x="40" y="305"><tspan class="strong">Create backend SVG generation</tspan></text></g><g><text x="40" y="345"><tspan class="strong">Replace frontend SVG generation with backend</tspan></text></g><g><text x="40" y="385"><tspan class="strong">Create documentation page</tspan></text></g></g><g><text x="10" y="425"><tspan class="strong">Marketing</tspan></text><g><text x="40" y="465"><tspan class="strong">Create facebook page</tspan></text></g><g><text x="40" y="505"><tspan class="strong">Write blog posts</tspan></text></g><g><text x="40" y="545"><tspan class="strong">Share blog post on social media</tspan></text></g><g><text x="40" y="585"><tspan class="strong">Talk about the tool in relevant meetups</tspan></text></g></g></svg><g><g><rect x="309.5353535353536" y="88" width="30.868686868686837" height="24" fill="#dedede" rx="5" ry="5"></rect><svg width="30.868686868686837" height="24" x="309.5353535353536" y="88"><rect width="30.868686868686837" height="24" fill="#6633cc" rx="5" ry="5"></rect><rect width="30.868686868686837" height="24" fill-opacity="0.2" rx="5" ry="5" fill="url(#stripes)"><title>100%, 2020-02-12 - 2020-02-20, 8 days</title></rect></svg></g><g><rect x="278.6666666666667" y="128" width="81.03030303030306" height="24" fill="#dedede" rx="5" ry="5"></rect><svg height="24" x="278.6666666666667" y="128" width="81.03030303030306"><rect width="81.03030303030306" height="24" fill="#cc3399" rx="5" ry="5"></rect><rect width="81.03030303030306" height="24" fill-opacity="0.2" rx="5" ry="5" fill="url(#stripes)"><title>100%, 2020-02-04 - 2020-02-25, 21 days</title></rect></svg><g><rect x="278.6666666666667" y="168" width="81.03030303030306" height="24" fill="#dedede" rx="5" ry="5"></rect><svg height="24" x="278.6666666666667" y="168" width="81.03030303030306"><rect width="81.03030303030306" height="24" fill="#003366" rx="5" ry="5"></rect><rect width="81.03030303030306" height="24" fill-opacity="0.2" rx="5" ry="5" fill="url(#stripes)"><title>100%, 2020-02-04 - 2020-02-25, 21 days</title></rect></svg></g><g><rect x="359.69696969696975" y="208" height="24" fill="#dedede" rx="5" ry="5"></rect><svg width="0" height="24" x="359.69696969696975" y="208"><rect height="24" fill="#663333" rx="5" ry="5"></rect><rect height="24" fill-opacity="0.2" rx="5" ry="5" fill="url(#stripes)"><title>100%, 2020-02-25 - 2020-02-25, 0 days</title></rect></svg></g></g><g><rect x="386.7070707070707" y="248" width="108.04040404040404" height="24" fill="#dedede" rx="5" ry="5"></rect><svg width="108.04040404040404" height="24" x="386.7070707070707" y="248"><rect width="108.04040404040404" height="24" fill="#cc3300" rx="5" ry="5"></rect><rect width="108.04040404040404" height="24" fill-opacity="0.2" rx="5" ry="5" fill="url(#stripes)"><title>100%, 2020-03-03 - 2020-03-31, 28 days</title></rect></svg><g><rect x="386.7070707070707" y="288" width="27.01010101010104" height="24" fill="#dedede" rx="5" ry="5"></rect><svg height="24" x="386.7070707070707" y="288" width="27.01010101010104"><rect width="27.01010101010104" height="24" fill="#0000ff" rx="5" ry="5"></rect><rect width="27.01010101010104" height="24" fill-opacity="0.2" rx="5" ry="5" fill="url(#stripes)"><title>100%, 2020-03-03 - 2020-03-10, 7 days</title></rect></svg></g><g><rect x="406.00000000000006" y="328" width="15.434343434343418" height="24" fill="#dedede" rx="5" ry="5"></rect><svg height="24" x="406.00000000000006" y="328" width="15.434343434343418"><rect width="15.434343434343418" height="24" fill="#6600cc" rx="5" ry="5"></rect><rect width="15.434343434343418" height="24" fill-opacity="0.2" rx="5" ry="5" fill="url(#stripes)"><title>100%, 2020-03-08 - 2020-03-12, 4 days</title></rect></svg></g><g><rect x="425.29292929292933" y="368" width="69.45454545454544" height="24" fill="#dedede" rx="5" ry="5"></rect><svg width="13.890909090909087" height="24" x="425.29292929292933" y="368"><rect width="69.45454545454544" height="24" fill="#cc0099" rx="5" ry="5"></rect><rect width="69.45454545454544" height="24" fill-opacity="0.2" rx="5" ry="5" fill="url(#stripes)"><title>20%, 2020-03-13 - 2020-03-31, 18 days</title></rect></svg></g></g><g><rect x="440.72727272727275" y="408" width="347.27272727272737" height="24" fill="#dedede" rx="5" ry="5"></rect><svg width="347.27272727272737" height="24" x="440.72727272727275" y="408"><rect width="347.27272727272737" height="24" fill="#000066" rx="5" ry="5"></rect><rect width="347.27272727272737" height="24" fill-opacity="0.2" rx="5" ry="5" fill="url(#stripes)"><title>100%, 2020-03-17 - 2020-06-15, 90 days</title></rect></svg><g><rect x="440.72727272727275" y="448" width="30.868686868686837" height="24" fill="#dedede" rx="5" ry="5"></rect><svg width="0" height="24" x="440.72727272727275" y="448"><rect width="30.868686868686837" height="24" fill="#660033" rx="5" ry="5"></rect><rect width="30.868686868686837" height="24" fill-opacity="0.2" rx="5" ry="5" fill="url(#stripes)"><title>0%, 2020-03-17 - 2020-03-25, 8 days</title></rect></svg></g><g><rect x="440.72727272727275" y="488" width="54.02020202020202" height="24" fill="#dedede" rx="5" ry="5"></rect><svg x="440.72727272727275" y="488" width="0" height="24"><rect width="54.02020202020202" height="24" fill="#cc0000" rx="5" ry="5"></rect><rect width="54.02020202020202" height="24" fill-opacity="0.2" rx="5" ry="5" fill="url(#stripes)"><title>0%, 2020-03-17 - 2020-03-31, 14 days</title></rect></svg></g><g><rect x="440.72727272727275" y="528" width="54.02020202020202" height="24" fill="#dedede" rx="5" ry="5"></rect><svg x="440.72727272727275" y="528" width="0" height="24"><rect width="54.02020202020202" height="24" fill="#ffffff" rx="5" ry="5"></rect><rect width="54.02020202020202" height="24" fill-opacity="0.2" rx="5" ry="5" fill="url(#stripes)"><title>0%, 2020-03-17 - 2020-03-31, 14 days</title></rect></svg></g><g><rect x="498.6060606060606" y="568" width="289.3939393939395" height="24" fill="#dedede" rx="5" ry="5"></rect><svg x="498.6060606060606" y="568" width="0" height="24"><rect width="289.3939393939395" height="24" fill="#00ff00" rx="5" ry="5"></rect><rect width="289.3939393939395" height="24" fill-opacity="0.2" rx="5" ry="5" fill="url(#stripes)"><title>0%, 2020-04-01 - 2020-06-15, 75 days</title></rect></svg></g></g></g><g><g><line x1="790" y1="35" x2="790" y2="45" stroke-width="2" stroke="#212529"></line><line x1="266.6666666666667" y1="40" x2="800" y2="40" stroke-width="2" stroke="#212529"></line><line x1="276.6666666666667" y1="35" x2="276.6666666666667" y2="45" stroke-width="2" stroke="#212529"></line></g><g><text x="278.6666666666667" y="30"><tspan>2020-02-04</tspan></text><text x="788" y="30" text-anchor="end"><tspan>2020-06-15</tspan></text></g><g><line x1="427.58646128185364" x2="427.58646128185364" y2="600" stroke-width="2" stroke="#ff3333" stroke-dasharray="10,10"></line><text x="427.58646128185364" y="60" text-anchor="middle" stroke="#ff3333"><tspan>2020-03-14</tspan></text></g></g><line y1="120" x2="800" y2="120" stroke-width="2" stroke="#eeeeee"></line><line y1="160" x2="800" y2="160" stroke-width="2" stroke="#eeeeee"></line><line y1="200" x2="800" y2="200" stroke-width="2" stroke="#eeeeee"></line><line y1="240" x2="800" y2="240" stroke-width="2" stroke="#eeeeee"></line><line y1="280" x2="800" y2="280" stroke-width="2" stroke="#eeeeee"></line><line y1="320" x2="800" y2="320" stroke-width="2" stroke="#eeeeee"></line><line y1="360" x2="800" y2="360" stroke-width="2" stroke="#eeeeee"></line><line y1="400" x2="800" y2="400" stroke-width="2" stroke="#eeeeee"></line><line y1="440" x2="800" y2="440" stroke-width="2" stroke="#eeeeee"></line><line y1="480" x2="800" y2="480" stroke-width="2" stroke="#eeeeee"></line><line y1="520" x2="800" y2="520" stroke-width="2" stroke="#eeeeee"></line><line y1="560" x2="800" y2="560" stroke-width="2" stroke="#eeeeee"></line><line x1="266.6666666666667" x2="266.6666666666667" y2="600" stroke-width="1" stroke="#999999"></line><line y1="80" x2="800" y2="80" stroke-width="1" stroke="#999999"></line></svg>